<svg xmlns="http://www.w3.org/2000/svg" width="301.7" height="113.9"><path fill="none" d="M-1.6 1.4h303v112.5h-303z"/><path d="M113 36v4h7.1v5.3H113v4.2h7.5v5.3h-13.7V30.7h13.7V36H113zm11.3-5.3h6.3l11.5 14.8h.1V30.7h6.3v24.1h-6.3L130.7 40h-.1v14.8h-6.3V30.7zm43.6 9.3v-9.3h6.3v24.1h-6.3V45h-9.1v9.9h-6.3V30.7h6.3V40h9.1zm16.5 10.6l-1.7 4.2H176l9.3-24.1h6.8l9.1 24.1h-6.7l-1.6-4.2h-8.5zm4.4-12.4l-2.7 7.7h5.2l-2.5-7.7zm14.4-7.5h6.3L221 45.5h.1V30.7h6.3v24.1H221L209.5 40h-.1v14.8h-6.3V30.7zm45.5 8.1c-1.3-1.7-3.4-2.7-5.5-2.7-3.8 0-6.4 2.9-6.4 6.7 0 3.8 2.6 6.6 6.5 6.6 2 0 4.1-1 5.4-2.6v7.5c-2.1.6-3.6 1.1-5.5 1.1-3.4 0-6.6-1.3-9.1-3.6-2.7-2.4-3.9-5.5-3.9-9.1 0-3.3 1.2-6.5 3.6-8.8 2.4-2.4 5.8-3.9 9.2-3.9 2 0 3.9.4 5.7 1.2v7.6zm10.1-2.8v4h7.1v5.3h-7.1v4.2h7.5v5.3h-13.7V30.7h13.7V36h-7.5zm11.3-5.3h8.9c6.7 0 12.3 5.3 12.3 12.1s-5.6 12.1-12.3 12.1h-8.9V30.7zm6.3 18.8h1.4c3.7 0 6.9-2 6.9-6.8 0-4.3-2.8-6.8-6.9-6.8h-1.5v13.6zM107.9 79.1h4.6v1.1h-5.8V61.9h1.2v17.2zm8.3-16.1v6.6h7.4v1.1h-7.4V79h7.5v1.1H115V61.9h8.7V63h-7.5zm13.3 11.2l-2.4 6h-1.2l7.6-18.9 7.6 18.9H140l-2.4-6h-8.1zm4-9.9l-3.6 8.8h7.1l-3.5-8.8zm19.2 15.9h-1.3l-6-8.6h-.6v8.6h-1.2V61.9h2.3c1.5 0 2.9 0 4.2.9 1.3.9 1.8 2.4 1.8 3.9 0 3.2-2.2 4.8-5.2 4.8l6 8.7zm-6.4-9.7c1.1 0 2.3 0 3.2-.8.9-.7 1.3-1.8 1.3-2.9 0-1.4-.6-2.7-1.9-3.3-1-.5-2.2-.4-3.3-.4h-.8v7.4h1.5zm26.1 10.3L157 64.5v15.7h-1.2V61.7l15.3 16.2v-16h1.2v18.9zm5.4-.6h-1.2V61.9h1.2v18.3zm20.9.6l-15.3-16.3v15.7h-1.2V61.7l15.3 16.2v-16h1.2v18.9zm21.4-9.4c0 2.3-.3 4.3-1.9 6.1-1.7 1.9-4.4 3-6.9 3-5.1 0-9.4-4.3-9.4-9.3 0-5.2 4.3-9.4 9.5-9.4 3.3 0 6 1.6 7.9 4.3l-.9.7c-1.6-2.4-4.1-3.9-7-3.9-4.5 0-8.3 3.9-8.3 8.3 0 4.5 3.7 8.3 8.3 8.3 2 0 3.9-.8 5.4-2 1.6-1.3 2.2-2.9 2.2-4.8h-6.5v-1.1h7.6zm26.4-6.3l-6.4 15.7-6.3-15.7-3.1 15.1h-1.1l3.9-18.9 6.7 16.6 6.7-16.6 3.9 18.9h-1.1l-3.2-15.1zm8.7 9.1l-2.4 6h-1.2l7.6-18.9 7.6 18.9h-1.2l-2.4-6h-8zm4-9.9l-3.6 8.8h7.1l-3.5-8.8zm11.3 15.9h-1.2V61.9h3.2c1.4 0 2.8.1 3.9 1.1 1.1.9 1.6 2.3 1.6 3.8 0 1.3-.5 2.8-1.5 3.6-1.1 1-2.6 1.2-4.1 1.2h-2.1v8.6zm2.1-9.8c1.2 0 2.2-.1 3.2-1 .8-.7 1.2-1.7 1.2-2.7 0-1.1-.5-2.3-1.4-3-.9-.7-2.1-.7-3.2-.7h-1.9v7.4h2.1zm17-5.5c-.8-1.3-2-2.2-3.7-2.2-2 0-3.4 1.6-3.4 3.5s1.8 2.7 3.3 3.4l3.5 1.8c1.4.9 2.1 2 2.1 3.6 0 3-2.8 5.3-5.7 5.3-2.5 0-4.5-1.6-5.4-3.9l1-.5c.8 1.9 2.2 3.3 4.4 3.3 2.4 0 4.5-1.9 4.5-4.3 0-2.1-2.1-2.9-3.7-3.7l-3.3-1.7c-1.2-.7-1.9-1.8-1.9-3.3 0-2.7 1.9-4.6 4.7-4.6 1.8 0 3.6 1 4.5 2.6l-.9.7z" fill="#FFF"/><path fill="none" stroke="#FFF" stroke-width="1.5" stroke-miterlimit="10" d="M101.2 88.1c-3.7 5.1-8.1 9.3-13.1 12.6-5.6 3.8-11.9 6.4-18.5 7.8-6.6 1.4-13.4 1.5-20.1.3s-13.3-3.7-19.3-7.7-11-8.9-14.8-14.6C11.7 81 9 74.7 7.6 68.1 6.3 61.6 6.1 54.7 7.3 48 8.5 41.3 11 34.7 15 28.7c3.9-6.1 8.9-11 14.6-14.8 5.6-3.8 11.9-6.4 18.5-7.8 6.6-1.4 13.4-1.5 20.1-.3 6.7 1.2 13.3 3.7 19.3 7.7 4.7 3.1 8.8 6.8 12.2 11"/><circle fill="#FFF" cx="101.1" cy="88.2" r="2.8"/><path fill="#FFF" d="M96.1 24.4l3-.7 1.5-2.6 1.7 6.9z"/><circle fill="#FFF" cx="58.9" cy="34.3" r="3.2"/><circle fill="#FFF" cx="48.9" cy="48.3" r="3.2"/><circle fill="#FFF" cx="62.4" cy="63.3" r="3.2"/><circle fill="#FFF" cx="47.8" cy="86.4" r="3.2"/><circle fill="#FFF" cx="28.1" cy="50.8" r="3.2"/><circle fill="#FFF" cx="81.4" cy="66.5" r="3.2"/><circle fill="#FFF" cx="89.1" cy="41.9" r="3.2"/><path fill="none" stroke="#FFF" stroke-miterlimit="10" d="M58.3 33.6c11.9 7.1 20.3 19.8 22.2 33.6M58.2 33.6c-13.4 14.6-18 33.1-9.8 53.7"/><path fill="#FFF" d="M47 87c14.6.6 28.7-7.8 35.3-20.9.3-.6-.6-1.1-.9-.5C75 78.4 61.2 86.5 47 86c-.7-.1-.7.9 0 1z"/><path fill="none" stroke="#FFF" stroke-miterlimit="10" d="M59.8 33.8C46.1 31.5 33 38.4 28.2 49.3c-6 13.7 1.9 32.4 19.2 38.2m12.5-54.8c12.1-6 25.9-.7 30.3 9.5 3.4 8 .6 18.4-7.2 24.8"/><path fill="none" stroke="#FFF" stroke-miterlimit="10" d="M48.9 48.5c.9 2.1 3.1 10.1 13.2 14.8 8.1 3.7 16.8 3.9 19.4 3.4"/></svg>